<?xml version="1.0" encoding="UTF-8" standalone="no"?><svg width="662" height="461" viewBox="0 0 662 461" xmlns="http://www.w3.org/2000/svg" xmlns:xlink="http://www.w3.org/1999/xlink"><svg width="27" height="27" viewBox="0 0 27 27" id="Unverified" x="301" y="329"><title>Unverified</title><g fill="none" fill-rule="evenodd"><path d="M27 13.5c0 .752-2.05 1.313-2.173 2.029-.127.735 1.608 1.972 1.362 2.658-.25.699-2.365.513-2.727 1.149-.366.64.846 2.407.38 2.97-.469.566-2.393-.34-2.95.135-.556.473-.009 2.554-.64 2.925-.626.368-2.13-1.15-2.818-.896-.676.25-.865 2.395-1.59 2.524-.706.126-1.603-1.823-2.344-1.823-.74 0-1.638 1.949-2.344 1.823-.725-.129-.914-2.274-1.59-2.524-.689-.255-2.192 1.264-2.818.896-.632-.37-.084-2.452-.64-2.925-.557-.475-2.482.43-2.95-.134-.466-.564.746-2.33.38-2.972-.362-.635-2.476-.45-2.727-1.148-.246-.686 1.489-1.923 1.362-2.658C2.049 14.813 0 14.252 0 13.5s2.05-1.313 2.173-2.028C2.3 10.736.565 9.499.81 8.813c.25-.699 2.365-.513 2.727-1.149.366-.64-.846-2.407-.38-2.97.469-.566 2.393.34 2.95-.135.556-.473.009-2.554.64-2.925.626-.368 2.13 1.15 2.818.896.676-.25.865-2.395 1.59-2.524.706-.126 1.603 1.823 2.344 1.823.74 0 1.638-1.949 2.344-1.823.725.129.914 2.274 1.59 2.524.689.254 2.192-1.264 2.818-.896.632.37.084 2.452.64 2.925.557.475 2.482-.431 2.95.134.466.564-.746 2.33-.38 2.972.362.635 2.476.45 2.727 1.148.246.686-1.489 1.923-1.362 2.659.124.715 2.173 1.276 2.173 2.028" fill="#B6BFCB"/><path d="M11.657 17.02l-4.243-4.242L6 14.192l4.95 4.95.707.707 9.192-9.192-1.414-1.414-7.778 7.778z" fill="#FFF"/></g></svg><svg width="20" height="20" viewBox="0 0 20 20" id="action-back-dark" x="538" y="405"><title>60B20C7C-29DE-4B53-833E-792C6CA45F51</title><path fill="#515A5F" d="M3.75 11.25h10.167L9.25 15.917l1.167 1.166 6.666-6.666-6.666-6.667L9.25 4.917l4.667 4.666H3.75z" fill-rule="evenodd"/></svg><svg width="22" height="20" viewBox="0 0 22 20" id="activity" x="327" y="359"><title>activity</title><path d="M0 12h2v8H0v-8zm4-7h2v15H4V5zm4 2h2v13H8V7zm4-7h2v20h-2V0zm4 4h2v16h-2V4zm4 6h2v10h-2V10z" fill="#67717E" fill-rule="evenodd"/></svg><svg width="11" height="10" viewBox="0 0 11 10" id="activity-cross" x="449" y="359"><title>activity-cross</title><path d="M6.929 5L10.5 1.429 9.071 0 5.5 3.571 1.929 0 .5 1.429 4.071 5 .5 8.571 1.929 10 5.5 6.429 9.071 10 10.5 8.571 6.929 5z" fill="#FE5F55" fill-rule="evenodd"/></svg><svg width="14" height="10" viewBox="0 0 14 10" id="activity-tick" x="530" y="329"><title>activity_tick</title><path fill="#39C48E" d="M6.873 8.556l.036.035-.036-.035L14 1.429 12.571 0 5.444 7.127 2.366 4.05.937 5.477l3.079 3.079L5.429 10z" fill-rule="evenodd"/></svg><svg width="22" height="22" viewBox="0 0 22 22" id="add-friend" x="454" y="405"><title>add-friend</title><path d="M19 5h2.841V3H19V0H17v3h-3v2h3v3h2V5zM8.5 5a5.5 5.5 0 1 1 0 11 5.5 5.5 0 0 1 0-11zm3.5 5.5a3.5 3.5 0 1 0-7 0 3.5 3.5 0 0 0 7 0zM1.558 22L0 20.7C2.13 19 4.933 18 8 18c3.073 0 5.872.996 8 2.7L14.633 22c-1.346-1.17-3.776-2.237-6.633-2.2-2.857-.037-5.331 1.19-6.442 2.2z" fill="#67717E" fill-rule="nonzero"/></svg><svg width="18" height="18" viewBox="0 0 18 18" id="alert" x="578" y="405"><title>alert</title><g transform="translate(-3 -3)" fill="#FE5F55" fill-rule="evenodd"><path d="M13 6.972h-2v8h2v-8zm-2 9.921c0 .29.086.53.258.721.172.191.418.287.738.287s.568-.096.742-.287c.175-.191.262-.431.262-.72 0-.285-.087-.522-.262-.71-.174-.189-.422-.283-.742-.283s-.566.094-.738.283a1.012 1.012 0 0 0-.258.71z"/><path d="M21 12a9 9 0 1 0-18 0 9 9 0 0 0 18 0zM5 12a7 7 0 1 1 14 0 7 7 0 0 1-14 0z"/></g></svg><svg width="51" height="51" viewBox="0 0 51 51" id="alert-danger" x="285" y="405"><title>alert_error</title><g transform="translate(.5 .5)" fill="none" fill-rule="evenodd"><rect fill="#FE5F55" width="50" height="50" rx="25"/><path d="M26.198 24.924l5.574-5.574-1.359-1.359-5.573 5.574-5.257-5.257-1.359 1.359 5.257 5.257-5.408 5.407 1.359 1.36 5.408-5.409 5.724 5.725 1.36-1.359-5.726-5.724z" fill="#FFF"/></g></svg><svg width="51" height="51" viewBox="0 0 51 51" id="alert-info" x="132" y="405"><title>alert_info</title><g transform="translate(.5 .5)" fill="none" fill-rule="evenodd"><rect fill="#2D9FFF" width="50" height="50" rx="25"/><path d="M24 33h2V23h-2v10zm0-14h2v-2h-2v2z" fill="#FFF"/></g></svg><svg width="51" height="51" viewBox="0 0 51 51" id="alert-success" x="183" y="405"><title>alert_success</title><g transform="translate(.5 .5)" fill="none" fill-rule="evenodd"><rect fill="#39C48E" width="50" height="50" rx="25"/><path d="M23.108 30.229l.029.026L33 20.481 31.519 19l-8.797 8.797-4.24-4.241L17 25.037l5.753 5.547.355-.355z" fill="#FFF"/></g></svg><svg width="51" height="51" viewBox="0 0 51 51" id="alert-warning" x="234" y="405"><title>alert_warning</title><g transform="translate(.5 .5)" fill="none" fill-rule="evenodd"><rect fill="#FFB946" width="50" height="50" rx="25"/><path d="M24 17h2v10h-2V17zm0 14h2v2h-2v-2z" fill="#FFF"/></g></svg><svg width="22" height="20" viewBox="0 0 22 20" id="applications" x="349" y="359"><title>applications</title><g fill="#67717E" fill-rule="evenodd"><path d="M19.812 9L22 10l-10.938 5L0 10l2.212-1 1.999.903L4 10l6.537 3 .259-.12.266.12 8.75-4z"/><path d="M19.812 14L22 15l-10.938 5L0 15l2.212-1 1.999.903L4 15l6.537 3 .259-.12.266.12 8.75-4zM11.062 0L22 5l-10.938 5L0 5l11.062-5zm-.023 2L18 5l-6.96 3L4 5l7.04-3z"/></g></svg><svg width="22" height="16" viewBox="0 0 22 16" id="billing" x="470" y="329"><title>billing</title><path d="M20.5 0H0v16h22V0h-1.5zM20 2H2v2h18V2zm0 4H2v8h18V6zm-9 4h7v2h-7v-2zm-4 0h2v2H7v-2z" fill="#67717E" fill-rule="evenodd"/></svg><svg width="6" height="8" viewBox="0 0 6 8" id="breadcrumb-separator" x="460" y="359"><title>Triangle 1</title><path d="M6 4L.375 8V0z" fill="#515A5F" fill-rule="evenodd"/></svg><svg width="24" height="25" viewBox="0 0 24 25" id="color" x="328" y="329"><title>color</title><g transform="rotate(45 10.314 23.9)" stroke="#67717E" stroke-width="2" fill="none" fill-rule="evenodd"><path d="M2.47 28.308c0-.186.107-.465.296-.845l.105-.204a13.711 13.711 0 0 1 .382-.674l.218-.357.218.357.12.202a13.711 13.711 0 0 1 .366.676c.19.38.296.66.296.845 0 .508-.5.92-1 .92s-1-.412-1-.92zM1.642 1.6L3.566.187l2.076 1.415v5.585h-4V1.601zM1.728 11.414h4v8.334l-.8 1.666h-2.4l-.8-1.666z"/><rect x=".142" y="7.343" width="7" height="4" rx="2"/></g></svg><svg width="24" height="18" viewBox="0 0 24 18" id="connect-off" x="376" y="329"><title>connect-off</title><path d="M13 5H9c-1.108 0-2 .773-2 2v9c0 1.226.895 2 2 2h13c1.11 0 2-.773 2-2V7c0-1.226-.896-2-2-2h-4v2h4v9H9V7h4V5zm2 8c1.108 0 2-.773 2-2V2c0-1.226-.895-2-2-2H2C.89 0 0 .773 0 2v9c0 1.226.896 2 2 2h4v-2H2V2h13v9h-4v2h4z" fill="#67717E" fill-rule="evenodd"/></svg><svg width="24" height="18" viewBox="0 0 24 18" id="connect-on" x="400" y="329"><title>connect-on</title><path d="M13 5H9c-1.108 0-2 .773-2 2v9c0 1.226.895 2 2 2h13c1.11 0 2-.773 2-2V7c0-1.226-.896-2-2-2h-4v2h4v9H9V7h4V5zm2 8c1.108 0 2-.773 2-2V2c0-1.226-.895-2-2-2H2C.89 0 0 .773 0 2v9c0 1.226.896 2 2 2h4v-2H2V2h13v9h-4v2h4z" fill="#2D9FFF" fill-rule="evenodd"/></svg><svg width="22" height="21" viewBox="0 0 22 21" id="connections" x="476" y="405"><title>connections</title><g transform="translate(-1 -2)" fill="none" fill-rule="evenodd"><path opacity=".391" d="M0 0h24v24H0z"/><path d="M15.157 11.114A5.003 5.003 0 0 1 13.1 8h-2.2a4.997 4.997 0 0 1-1.688 2.832l1.37 2.372c.45-.133.925-.204 1.418-.204.658 0 1.286.127 1.861.358l1.296-2.244zm1.854.788A5 5 0 1 0 13.1 6h-2.2A5.002 5.002 0 0 0 1 7a5 5 0 0 0 6.453 4.785l1.363 2.36a5 5 0 1 0 6.718.317l1.477-2.56zM6 10a3 3 0 1 0 0-6 3 3 0 0 0 0 6zm12 0a3 3 0 1 0 0-6 3 3 0 0 0 0 6zm-6 11a3 3 0 1 0 0-6 3 3 0 0 0 0 6z" fill="#67717E"/></g></svg><svg width="20" height="18" viewBox="0 0 20 18" id="dashboard" x="393" y="359"><title>dashboard</title><path d="M20 5V4h-9v6h9V5zm-2 1h-5v2h5V6zM9 5V4H0v6h9V5zM7 6H2v2h5V6zm13 7v-1h-9v6h9v-5zm-2 1h-5v2h5v-2zm-9-1v-1H0v6h9v-5zm-2 1H2v2h5v-2zM0 0h20v2H0V0z" fill="#67717E" fill-rule="evenodd"/></svg><svg width="16" height="16" viewBox="0 0 16 16" id="dismiss-dark" x="613" y="405"><title>dismiss-dark</title><path d="M8 10l-6 6-2-2 6-6-6-6 2-2 6 6 6-6 2 2-6 6 6 6-2 2-6-6z" fill="#B6BFCB" fill-rule="evenodd"/></svg><svg width="17" height="17" viewBox="0 0 17 17" id="dismiss-light" x="355" y="427"><title>dismiss-light</title><path d="M8.5 10.5l-6 6-2-2 6-6-6-6 2-2 6 6 6-6 2 2-6 6 6 6-2 2-6-6z" fill="#FFF" fill-rule="evenodd"/></svg><svg width="20" height="19" viewBox="0 0 20 19" id="download" x="558" y="405"><title>download</title><path d="M18.5 19H0v-6h2v4h16v-4h2v6h-1.5zM9 10.586V0h2v9.748L13.748 7l1.414 1.414-4.167 4.167.076.076-1.414 1.414-.076-.076-.167.167L8 12.748l.167-.167L4 8.414 5.414 7 9 10.586z" fill="#67717E" fill-rule="evenodd"/></svg><svg width="15" height="22" viewBox="0 0 15 22" id="edit" x="358" y="405"><title>edit</title><defs><path id="awa" d="M.214.541h5v5h-5z"/><mask id="awc" x="0" y="0" width="5" height="5" fill="#fff"><use xlink:href="#awa"/></mask><path id="awb" d="M.183 7.487h5V21.2l-2.5 2.286-2.5-2.286z"/><mask id="awd" x="0" y="0" width="5" height="16" fill="#fff"><use xlink:href="#awb"/></mask></defs><g transform="rotate(30 6.366 19.464)" stroke="#67717E" stroke-width="4" fill="none" fill-rule="evenodd"><use mask="url(#awc)" xlink:href="#awa"/><use mask="url(#awd)" xlink:href="#awb"/></g></svg><svg width="662" height="329" viewBox="0 0 662 329" id="illustration"><title>82D4DB49-83A6-480E-B0F9-19E88E2B5F4D</title><defs><rect id="axe" width="446" height="18" rx="4"/><path d="M17.674 0h5.892c1.549 0 2.946 1.23 2.946 2.948v14.743c0 1.721-1.389 2.948-2.946 2.948H2.946C1.396 20.64 0 19.41 0 17.691V2.948C0 1.228 1.392 0 2.946 0h5.891" id="axa"/><mask id="axg" x="0" y="0" width="26.512" height="20.639" fill="#fff"><use xlink:href="#axa"/></mask><path d="M29.457 8.845h5.892c1.549 0 2.945 1.23 2.945 2.949v14.742c0 1.721-1.388 2.948-2.945 2.948h-20.62c-1.55 0-2.946-1.229-2.946-2.948V11.794c0-1.722 1.392-2.949 2.946-2.949h5.891" id="axb"/><mask id="axh" x="0" y="0" width="26.512" height="20.639" fill="#fff"><use xlink:href="#axb"/></mask><path d="M17.674 0h5.892c1.549 0 2.946 1.23 2.946 2.948v14.743c0 1.721-1.389 2.948-2.946 2.948H2.946C1.396 20.64 0 19.41 0 17.691V2.948C0 1.228 1.392 0 2.946 0h5.891" id="axc"/><mask id="axi" x="0" y="0" width="26.512" height="20.639" fill="#fff"><use xlink:href="#axc"/></mask><path d="M29.674 9h5.892c1.549 0 2.946 1.23 2.946 2.948v14.743c0 1.721-1.389 2.948-2.946 2.948h-20.62c-1.55 0-2.946-1.23-2.946-2.948V11.948C12 10.228 13.392 9 14.946 9h5.891" id="axd"/><mask id="axj" x="0" y="0" width="26.512" height="20.639" fill="#fff"><use xlink:href="#axd"/></mask></defs><g transform="translate(-478 -545)" fill="none" fill-rule="evenodd"><path fill="#FFF" d="M0 0h1440v1272H0z"/><g transform="translate(480 559)"><path d="M145 58h255.75v156H145z"/><path fill-opacity=".4" fill="#67717E" d="M239 252h68.029l1 2H238z"/><g transform="translate(46 278)"><mask id="axf" fill="#fff"><use xlink:href="#axe"/></mask><use fill="#FFD590" xlink:href="#axe"/><path fill-opacity=".3" fill="#BF8B35" mask="url(#axf)" d="M0 0h446v4H0z"/></g><g transform="translate(510 77)"><rect fill="#333B40" width="113" height="140.74" rx="16"/><rect fill="#FFF" x="9.297" y="13.578" width="94.405" height="140.74" rx="8"/><ellipse cx="2.861" cy="2.858" rx="2.861" ry="2.858" transform="translate(54.354 4.288)" fill="#FFF"/><path fill="#DCDCDC" d="M12.472 17.188h87.806v56.296H12.472z"/><g><rect fill="#333B40" width="113" height="201.519" rx="16"/><rect fill="#FFF" x="9.297" y="13.578" width="94.405" height="150.783" rx="8"/><ellipse fill="#67717E" cx="56.222" cy="7.25" rx="2.861" ry="2.858"/></g><g transform="translate(38.922 72.043)" stroke-width="6" stroke="#2D9FFF"><use mask="url(#axg)" transform="rotate(-180 13.256 10.32)" xlink:href="#axa"/><use mask="url(#axh)" xlink:href="#axb"/></g><ellipse fill-opacity=".4" fill="#67717E" cx="56.5" cy="180.671" rx="10.044" ry="10.037"/></g><path d="M550 214h33.773M540 205h52.685" stroke="#EAEAEA" stroke-width="5" stroke-linecap="round" stroke-linejoin="round"/><g transform="translate(24 48)"><path d="M218.331 195.1l-11.538 28.17c-1.675 4.089.55 7.403 4.973 7.403h74.652c4.421 0 6.648-3.315 4.973-7.403l-11.538-28.17H218.33z" fill="#B6BFCB"/><g transform="translate(91.712 .333)"><rect fill="#B6BFCB" x=".188" y=".261" width="314.085" height="203.737" rx="8"/><rect fill="#FFF" x="11.521" y="9.963" width="291.419" height="156.845" rx="6"/></g><g transform="translate(.435 102.535)"><rect fill="#09D2B0" x="35.444" y=".628" width="34.436" height="85.462" rx="17.218"/><rect fill="#09D2B0" x="69.88" y="28.768" width="20.87" height="71.913" rx="10.435"/><path d="M105.627 106.706V66.154H22.033v40.552c0 12.213 9.366 21.469 21.496 21.469h40.603c12.135 0 21.495-9.252 21.495-21.47z" fill="#8076E9"/><ellipse fill="#057D71" cx="42.227" cy="16.783" rx="2.609" ry="2.606"/><ellipse fill="#057D71" cx="52.662" cy="10.529" rx="2.609" ry="2.606"/><ellipse fill="#057D71" cx="52.662" cy="23.036" rx="2.609" ry="2.606"/><ellipse fill="#057D71" cx="42.227" cy="29.289" rx="2.609" ry="2.606"/><ellipse fill="#057D71" cx="42.227" cy="41.796" rx="2.609" ry="2.606"/><ellipse fill="#057D71" cx="42.227" cy="54.302" rx="2.609" ry="2.606"/><ellipse fill="#057D71" cx="63.097" cy="16.783" rx="2.609" ry="2.606"/><ellipse fill="#057D71" cx="63.097" cy="29.289" rx="2.609" ry="2.606"/><ellipse fill="#057D71" cx="63.097" cy="41.796" rx="2.609" ry="2.606"/><ellipse fill="#057D71" cx="63.097" cy="54.302" rx="2.609" ry="2.606"/><ellipse fill="#057D71" cx="52.662" cy="48.049" rx="2.609" ry="2.606"/><ellipse fill="#057D71" cx="52.662" cy="35.542" rx="2.609" ry="2.606"/><ellipse fill="#057D71" cx="76.663" cy="62.64" rx="2.609" ry="2.606"/><ellipse fill="#057D71" cx="85.011" cy="56.387" rx="2.609" ry="2.606"/><ellipse fill="#057D71" cx="76.663" cy="50.133" rx="2.609" ry="2.606"/><ellipse fill="#057D71" cx="85.011" cy="43.88" rx="2.609" ry="2.606"/><ellipse fill="#057D71" cx="76.663" cy="37.627" rx="2.609" ry="2.606"/><ellipse fill="#057D71" cx="52.662" cy="60.556" rx="2.609" ry="2.606"/></g><rect fill="#FFF" x="143" y="22" width="212.707" height="135.322" rx="4"/><g transform="translate(335 25)" stroke="#2D9FFF" stroke-width="6"><use mask="url(#axi)" transform="rotate(-180 13.256 10.32)" xlink:href="#axc"/><use mask="url(#axj)" xlink:href="#axd"/></g><g transform="translate(175 54)" stroke="#EAEAEA" stroke-width="5" stroke-linecap="round" stroke-linejoin="round"><path d="M106 1H0M106 13H0M106 51H0M106 26H0M106 63H0M106 38H0"/></g><g transform="translate(159 51)" fill="#EAEAEA"><ellipse cx="4.361" cy="4.158" rx="4.361" ry="4.158"/><ellipse cx="4.361" cy="16.558" rx="4.361" ry="4.158"/><ellipse cx="4.361" cy="28.958" rx="4.361" ry="4.158"/><ellipse cx="4.361" cy="41.358" rx="4.361" ry="4.158"/><ellipse cx="4.361" cy="53.758" rx="4.361" ry="4.158"/><ellipse cx="4.361" cy="66.158" rx="4.361" ry="4.158"/></g></g><g transform="translate(527)"><path d="M51.477 44.316l-11.88 11.88-11.879-11.88c6.561-6.56 17.198-6.56 23.76 0" fill="#2D9FFF"/><path d="M79.196 16.598C57.326-5.272 21.87-5.272 0 16.598M65.337 32.457c-14.215-14.215-37.263-14.215-51.478 0" stroke="#2D9FFF" stroke-width="9.333"/></g><rect fill="#FFF" opacity=".218" x="52" y="228" width="5" height="32" rx="2.5"/></g></g></svg><svg width="18" height="18" viewBox="0 0 18 18" id="info" x="413" y="359"><title>info</title><g transform="translate(-3 -3)" fill="#2D9FFF" fill-rule="evenodd"><path d="M13 18h-2v-8h2v8zM11 8c0-.282.086-.522 0-1 .43.096.676 0 1 0 .316 0 .564.096 1 0-.087.478 0 .718 0 1 0 .292-.087.528 0 1-.436-.094-.684 0-1 0-.324 0-.57-.094-1 0 .086-.472 0-.708 0-1z"/><path d="M21 12a9 9 0 1 0-18 0 9 9 0 0 0 18 0zm-16.2.379C4.8 8.024 8.024 4.8 12.379 4.8c3.597 0 6.821 3.224 6.821 7.579 0 3.597-3.224 6.821-6.821 6.821-4.355 0-7.579-3.224-7.579-6.821z"/></g></svg><svg width="62" height="76" viewBox="0 0 62 76" id="lock-sml" x="132" y="329"><title>lock-sml.svg</title><defs><path d="M16.993 0h6.009c9.082 0 16.435 7.552 16.435 16.881v26.038c0 9.321-7.353 16.88-16.435 16.88h-6.009c-9.082 0-16.435-7.552-16.435-16.88V16.881C.558 7.559 7.912 0 16.993 0zm-6.977 42.66c0 4.167 3.184 7.529 7.116 7.529h5.731c3.93 0 7.117-3.367 7.117-7.529V17.139c0-4.166-3.185-7.529-7.117-7.529h-5.731c-3.929 0-7.116 3.367-7.116 7.529V42.66z" id="aza"/><path d="M3.996.764A3.995 3.995 0 0 0 0 4.758v40.065a4 4 0 0 0 3.996 3.994h54.003a3.994 3.994 0 0 0 3.996-3.994V4.758A4 4 0 0 0 57.999.764H3.996z" id="azc"/><path d="M.219 7.053c0 2.79 1.754 5.163 4.203 6.043v6.76c0 1.186.94 2.147 2.101 2.147 1.16 0 2.102-.961 2.102-2.147v-6.76c2.448-.88 4.203-3.253 4.203-6.043 0-3.539-2.823-6.407-6.306-6.407C3.04.646.219 3.514.219 7.053z" id="aze"/></defs><g fill="none" fill-rule="evenodd"><g transform="translate(11)"><mask id="azb" fill="#fff"><use xlink:href="#aza"/></mask><path fill="#EBEBEB" mask="url(#azb)" d="M-4.441 64.799h48.878V-5H-4.441z"/></g><g transform="translate(0 27)"><mask id="azd" fill="#fff"><use xlink:href="#azc"/></mask><path fill="#9DA3A5" mask="url(#azd)" d="M-5 53.817h71.995V-4.236H-5z"/></g><g transform="translate(25 41)"><mask id="azf" fill="#fff"><use xlink:href="#aze"/></mask><path fill="#333B40" mask="url(#azf)" d="M-4.782 27.003h22.609V-4.354H-4.782z"/></g></g></svg><svg width="68" height="30" viewBox="0 0 68 30" id="logo" x="194" y="329"><title>logo/yoti_logo</title><g fill="none" fill-rule="evenodd"><path d="M68 0v30H0V0h68z" fill="#333B40"/><path d="M30 3H3v24h27V3z" fill="#BFC2C4"/><path d="M31 27h34V3H31v24z" fill="#2D9FFF"/><circle fill="#333B40" cx="31.5" cy="15.5" r="7.5"/><circle fill="#FFF" cx="31.5" cy="15.5" r="4.5"/><path fill="#333B40" d="M30 3h3v6h-3zM30 21h3v6h-3zM22.383 10.262L20.166 8l-5.68 5.07L9.666 8l-2.419 2.128L13 16.058V23h3l.008-6.942 6.375-5.796zM54 11h-5v12h-3V11h-5V8h13v3zM58 8v14h3V8h-3z"/></g></svg><svg width="39" height="39" viewBox="0 0 39 39" id="logo-circle" x="234" y="359"><title>logo/logo_circle</title><g fill="none" fill-rule="evenodd"><path stroke="#FFF" stroke-width="4" fill="#FFF" d="M0 0h39v39H0z"/><g transform="translate(4 4)"><path d="M15 2H2v27h13V2z" fill="#BFC2C4"/><path d="M15 29h14V2H15v27z" fill="#2D9FFF"/><path d="M0 0v31h31V0H0zm15 3v25H3V3h12zm1 25V3h12v25H16z" fill="#333B40"/><circle fill="#333B40" cx="15.5" cy="15.5" r="7.5"/><circle fill="#FFF" cx="15.5" cy="15.5" r="4.5"/><path fill="#333B40" d="M14 3h3v6h-3zM14 22h3v6h-3z"/></g></g></svg><svg width="20" height="14" viewBox="0 0 20 14" id="menu" x="492" y="329"><title>menu</title><path d="M0 0h20v2H0V0zm0 6h20v2H0V6zm0 6h20v2H0v-2z" fill="#67717E" fill-rule="evenodd"/></svg><svg width="12" height="6" viewBox="0 0 12 6" id="menu-down-arrow" x="556" y="329"><title>menu-down-arrow</title><path d="M0 0h12L6 6z" fill="#67717E" fill-rule="evenodd"/></svg><svg width="12" height="6" viewBox="0 0 12 6" id="menu-up-arrow" x="544" y="329"><title>menu-up-arrow</title><path fill="#67717E" d="M12 6H0l6-6z" fill-rule="evenodd"/></svg><svg width="22" height="23" viewBox="0 0 22 23" id="messages" x="305" y="359"><title>messages</title><path d="M22 1.5V14h-2V2H2v12H0V0h22v1.5zM5.493 22H4v-6H0v-2h6v4.556l4.577-4.506.423.423V14h11v2H11.71l-4.807 4.807L6 21.71V22h-.29l-.118.119-.1-.119zM4 4h14v2H4V4zm0 4h8v2H4V8z" fill="#67717E" fill-rule="evenodd"/></svg><svg width="19" height="22" viewBox="0 0 19 22" id="pages" x="336" y="427"><title>pages</title><path d="M17.5 22H19V2h-2v18H2v2h15.5zM.005 6H0v12h15V0H6v.005L5.995 0 0 5.995.005 6zM6 2.822V6H2.822L6 2.822zM2 8v8h11V2H8v6H2z" fill="#67717E" fill-rule="evenodd"/></svg><svg width="18" height="15" viewBox="0 0 18 15" id="progress-tick" x="431" y="359"><title>Rectangle 1075</title><path d="M6.17 10.026L2.12 5.978 0 8.099l4.048 4.048-.048.048 2.121 2.121L17.435 3.002 15.314.882l-9.145 9.144z" fill="#FFF" fill-rule="evenodd"/></svg><svg width="22" height="18" viewBox="0 0 22 18" id="read" x="371" y="359"><title>read</title><g fill="#67717E" fill-rule="evenodd"><path d="M10 0h2v4h-2V0zm5.913 2l1.896.58-.912 2.985L15 4.985 15.913 2zm4.25 3l1.645 1.11-1.164 1.724L19 6.725 20.164 5zM0 6.11L1.644 5l1.164 1.725-1.644 1.11L0 6.108zm4-3.53L5.897 2l.912 2.985-1.896.58L4 2.58zM11 18c2.569 0 5.067-1.01 7.409-2.677a19.85 19.85 0 0 0 2.186-1.808c.392-.374.67-.67.826-.848L22 12l-.58-.667a13.598 13.598 0 0 0-.825-.848 19.85 19.85 0 0 0-2.186-1.808C16.067 7.01 13.569 6 11 6S5.933 7.01 3.591 8.677a19.85 19.85 0 0 0-2.186 1.808c-.392.374-.67.67-.826.848L0 12l.58.667c.154.179.433.474.825.848a19.85 19.85 0 0 0 2.186 1.808C5.933 16.99 8.431 18 11 18zm-6.324-4.323a17.951 17.951 0 0 1-1.975-1.63c-.346-.329-.346.235 0-.095a17.951 17.951 0 0 1 1.975-1.63C6.728 8.867 8.876 8 11 8c2.124 0 4.272.866 6.324 2.323.729.518 1.393 1.074 1.975 1.63.346.329.346-.235 0 .095a17.951 17.951 0 0 1-1.975 1.63C15.272 15.133 13.124 16 11 16c-2.124 0-4.272-.866-6.324-2.323z"/><path d="M11 18a6 6 0 1 0 0-12 6 6 0 0 0 0 12zm0-2a4 4 0 1 1 0-8 4 4 0 0 1 0 8z"/></g></svg><svg width="39" height="29" viewBox="0 0 39 29" id="receipt-confirmed" x="262" y="329"><title>receipt_confirmed</title><path d="M18.864 24.633l20.105-19.89L34.727.5 14.729 20.498l-9.986-9.986L.5 14.755l10.194 9.777-.01.01.593.55 3.66 3.51 3.948-3.948-.021-.02z" fill="#39C48E" fill-rule="evenodd"/></svg><svg width="20" height="20" viewBox="0 0 20 20" id="release-account" x="498" y="405"><title>release-account</title><g transform="translate(-2 -2)" fill="#67717E" fill-rule="evenodd"><path d="M20 20H4V10h16v10zm1 2H2V8h20v14h-1zm-8-6.266V18h-2v-2.266c-.598-.344-1-.989-1-1.734 0-1.105.888-2 2-2 1.105 0 2 .888 2 2 0 .742-.4 1.39-1 1.734z"/><path d="M6 6c0-2.21 1.797-4 3.996-4h4.008A4 4 0 0 1 18 6v4H6V6zm2 0c0-1.105.887-2 1.998-2h4.004C15.105 4 16 4.888 16 6v2H8V6z"/></g></svg><svg width="32" height="35" viewBox="0 0 32 35" id="reload" x="273" y="359"><title>icon_reload</title><defs><path d="M28 8.417A15.961 15.961 0 0 0 16 3C7.163 3 0 10.163 0 19s7.163 16 16 16a15.96 15.96 0 0 0 11.865-5.265l-2.908-2.631C22.812 29.47 19.744 31 16.444 31 9.373 31 4 25.627 4 19.444 4 12.373 9.373 7 16.444 7c3.286 0 6.343 1.517 8.486 4H17v4h15V0h-4v8.417z" id="bla"/></defs><use fill="#FFF" xlink:href="#bla" fill-rule="evenodd"/></svg><svg width="19" height="22" viewBox="0 0 19 22" id="reports" x="435" y="405"><title>reports</title><path d="M17.5 22H19V2h-2v18H2v2h15.5zM2 2v14h11V2H2zM0 1v17h15V0H0v1zm4 3h7v2H4V4zm0 4h7v2H4V8zm0 4h7v2H4v-2z" fill="#67717E" fill-rule="evenodd"/></svg><svg width="19" height="22" viewBox="0 0 19 22" id="sdk-documentation" x="416" y="405"><title>sdk-documentation</title><path d="M5 10H4V4h7v6H5zm1-2V6h3v2H6zM2 2v14h11V2H2zM0 1v17h15V0H0v1zm4 11h7v2H4v-2zM17 2h2v18h-2V2zM2 20h17v2H2v-2z" fill="#67707D" fill-rule="evenodd"/></svg><svg width="17" height="16" viewBox="0 0 17 16" id="sdk-download" x="596" y="405"><title>icons/sdk_download</title><path d="M9 10.68V.5C9 .23 8.776 0 8.5 0c-.268 0-.5.224-.5.5v10.363L4.269 7.132a.45.45 0 0 0-.637.637l3.823 3.823c.254.254.588.386.924.393a.492.492 0 0 0 .334-.034c.238-.055.464-.174.648-.359l3.824-3.823a.45.45 0 1 0-.637-.637L9 10.68zM15.55 4c.266 0 .45.156.45.306v10.388c0 .148-.186.306-.441.306H1.44c-.26 0-.441-.155-.441-.306V4.306C1 4.154 1.18 4 1.45 4h2.815a.5.5 0 1 0 0-1H1.45C.66 3 0 3.563 0 4.306v10.388C0 15.435.66 16 1.441 16H15.56c.775 0 1.441-.567 1.441-1.306V4.306C17 3.564 16.335 3 15.55 3h-2.815a.5.5 0 1 0 0 1h2.815z" fill="#BFC2C4" fill-rule="evenodd"/></svg><svg width="21" height="22" viewBox="0 0 21 22" id="search" x="395" y="405"><title>search</title><g fill="#B6BFCB" fill-rule="evenodd"><path d="M13.91 16.543l5.469 5.469 1.616-1.617-5.338-5.338a9 9 0 1 0-1.746 1.486zM9 16A7 7 0 1 1 9 2a7 7 0 0 1 0 14z"/><path d="M9 4a5 5 0 0 0-5 5h2a3 3 0 0 1 3-3V4z"/></g></svg><svg width="22" height="22" viewBox="0 0 22 22" id="setting" x="373" y="405"><title>settings</title><defs><path d="M15.084 4l-3-3-3 3H4v5.084L1.084 12 4 14.916V20h5.084l3 3 3-3H20v-4.916L23.084 12 20 8.916V4h-4.916z" id="bqa"/><mask id="bqb" x="0" y="0" width="22" height="22" fill="#fff"><use xlink:href="#bqa"/></mask></defs><g transform="translate(-1 -1)" fill="none" fill-rule="evenodd"><use stroke="#67707D" mask="url(#bqb)" stroke-width="4" xlink:href="#bqa"/><path d="M12 15a3 3 0 1 0 0-6 3 3 0 0 0 0 6zm0 2a5 5 0 1 1 0-10 5 5 0 0 1 0 10z" fill="#67707D"/></g></svg><svg width="22" height="22" viewBox="0 0 22 22" id="settings" x="336" y="405"><title>settings</title><defs><path d="M15.084 4l-3-3-3 3H4v5.084L1.084 12 4 14.916V20h5.084l3 3 3-3H20v-4.916L23.084 12 20 8.916V4h-4.916z" id="bra"/><mask id="brb" x="0" y="0" width="22" height="22" fill="#fff"><use xlink:href="#bra"/></mask></defs><g transform="translate(-1 -1)" fill="none" fill-rule="evenodd"><use stroke="#67717E" mask="url(#brb)" stroke-width="4" xlink:href="#bra"/><path d="M12 15a3 3 0 1 0 0-6 3 3 0 0 0 0 6zm0 2a5 5 0 1 1 0-10 5 5 0 0 1 0 10z" fill="#67707D"/></g></svg><svg width="18" height="12" viewBox="0 0 18 12" id="sort" x="512" y="329"><title>sort</title><path d="M0 2h18V0H0v2zm0 5h12V5H0v2zm0 5h6v-2H0v2z" fill="#B6BFCB" fill-rule="evenodd"/></svg><svg width="20" height="20" viewBox="0 0 20 20" id="support" x="518" y="405"><title>support</title><defs><path d="M10 20c5.523 0 10-4.477 10-10S15.523 0 10 0 0 4.477 0 10s4.477 10 10 10z" id="bta"/><mask id="btc" x="0" y="0" width="20" height="20" fill="#fff"><use xlink:href="#bta"/></mask><path d="M10 15a5 5 0 1 0 0-10 5 5 0 0 0 0 10z" id="btb"/><mask id="btd" x="0" y="0" width="10" height="10" fill="#fff"><use xlink:href="#btb"/></mask></defs><g fill="none" fill-rule="evenodd"><use stroke="#67717E" mask="url(#btc)" stroke-width="4" xlink:href="#bta"/><use stroke="#67717E" mask="url(#btd)" stroke-width="4" xlink:href="#btb"/><path fill="#67717E" d="M7.243 12l1.414 1.414-4.243 4.242L3 16.242zM17.657 16.243l-1.414 1.414-4.242-4.243L13.415 12zM8.657 7.243L7.243 8.657 3.001 4.414 4.415 3zM16.243 3l1.414 1.414-4.243 4.242L12 7.242z"/></g></svg><svg width="22" height="16" viewBox="0 0 22 16" id="upload-logo" x="448" y="329"><title>upload-logo</title><path d="M18 10V6h-2v4h-4v2h4v4h2v-4h4v-2h-4zm4-9V0H0v14h2V2h18v6h2V1zM0 14h14v2H0v-2zm20 0h2v2h-2v-2z" fill="#67717E" fill-rule="evenodd"/></svg><svg width="132" height="132" viewBox="0 0 132 132" id="user-selfie-ph-medium" y="329"><title>user-selfie-ph-medium.svg</title><defs><circle id="bva" cx="66" cy="66" r="66"/></defs><g fill="none" fill-rule="evenodd"><mask id="bvb" fill="#fff"><use xlink:href="#bva"/></mask><use fill="#F5F5F5" xlink:href="#bva"/><g mask="url(#bvb)"><path d="M109.055 111.829c1.312 1.247 1.312 3.88 0 5.632-9.631 9.304-28.86 16.896-45.137 16.896-17.069 0-37.001-12.438-41.375-16.896-1.522-1.735-1.228-4.422 0-5.632 6.78-6.63 24.919-15.958 41.375-15.958 16.28 0 35.506 6.149 45.137 15.958zM65.799 88.362c-16.619 0-30.091-13.449-30.091-30.038 0-16.59 13.472-30.038 30.09-30.038 16.62 0 30.092 13.448 30.092 30.038S82.418 88.362 65.8 88.362z" fill="#B6BFCB"/></g></g></svg><svg width="40" height="40" viewBox="0 0 40 40" id="user-selfie-ph-small" x="194" y="359"><title>user_selfie_ph</title><g fill="none" fill-rule="evenodd"><path fill-opacity=".01" fill="#FFF" d="M0 0h40v40H0z"/><path d="M32.684 33.46C30.004 30.756 24.554 29 20 29c-4.727 0-9.869 2.666-11.685 4.46-.454.447-.537 1.215 0 1.783C9.449 36.445 15.1 40 19.943 40c4.61 0 10.06-2.17 12.74-4.757.422-.573.422-1.326 0-1.784zM20.5 27a8.5 8.5 0 1 0 0-17 8.5 8.5 0 0 0 0 17z" fill="#BFC2C4"/></g></svg><svg width="24" height="17" viewBox="0 0 24 17" id="users" x="424" y="329"><title>users</title><g transform="translate(0 -3)" fill="#67717E" fill-rule="nonzero"><path d="M7 7a4 4 0 1 1 0 8 4 4 0 0 1 0-8zm2 4a2 2 0 1 0-4 0 2 2 0 0 0 4 0zm-7.637 9L0 18.7C1.863 17 4.316 16 7 16c2.689 0 5.138.996 7 2.7L12.804 20C11.626 18.83 9.5 17.763 7 17.8c-2.5-.037-4.665 1.19-5.637 2.2zM17 3a4 4 0 1 1 0 8 4 4 0 0 1 0-8zm2 4a2 2 0 1 0-4 0 2 2 0 0 0 4 0zm-7.637 9L10 14.7c1.863-1.7 4.316-2.7 7-2.7 2.689 0 5.138.996 7 2.7L22.804 16C21.626 14.83 19.5 13.763 17 13.8c-2.5-.037-4.665 1.19-5.637 2.2z"/></g></svg><svg width="24" height="24" viewBox="0 0 24 24" id="verified" x="352" y="329"><title>Verified</title><g fill="none" fill-rule="evenodd"><path d="M24 12c0 .668-1.822 1.167-1.931 1.803-.113.654 1.429 1.753 1.21 2.363-.223.621-2.102.456-2.424 1.021-.325.57.752 2.14.337 2.641-.416.503-2.126-.303-2.622.12-.494.42-.007 2.27-.569 2.6-.556.327-1.892-1.023-2.504-.797-.601.222-.77 2.13-1.414 2.244-.627.111-1.425-1.621-2.083-1.621-.658 0-1.456 1.732-2.083 1.62-.645-.114-.813-2.02-1.414-2.243-.612-.226-1.948 1.123-2.505.797-.561-.33-.075-2.18-.569-2.6-.495-.423-2.206.383-2.622-.12-.414-.5.663-2.071.338-2.641-.322-.565-2.201-.4-2.424-1.02-.219-.61 1.323-1.71 1.21-2.364C1.821 13.167 0 12.668 0 12c0-.668 1.822-1.167 1.931-1.803.113-.654-1.429-1.753-1.21-2.363.223-.621 2.102-.456 2.424-1.021.325-.57-.752-2.14-.337-2.641.416-.503 2.126.303 2.622-.12.494-.42.007-2.27.569-2.6.556-.326 1.892 1.023 2.504.797.6-.222.769-2.13 1.414-2.244.627-.111 1.425 1.621 2.083 1.621.658 0 1.456-1.732 2.083-1.62.645.114.813 2.02 1.414 2.243.612.226 1.948-1.123 2.504-.797.562.33.076 2.18.57 2.6.495.423 2.206-.383 2.622.12.414.501-.663 2.071-.338 2.641.322.565 2.201.4 2.424 1.02.219.61-1.323 1.71-1.21 2.364C22.179 10.833 24 11.332 24 12" fill="#2D9FFF"/><path d="M10.362 15.13L6.59 11.358l-1.257 1.257 4.4 4.4.629.629 8.17-8.171-1.256-1.257-6.914 6.914z" fill="#FFF"/></g></svg></svg>